<?xml version="1.0" encoding="UTF-8"?>
<svg id="_图层_1" data-name=" 图层 1" xmlns="http://www.w3.org/2000/svg" viewBox="0 0 2000 2000">
  <defs>
    <style>
      .cls-1 {
        fill: #ca848a;
      }

      .cls-1, .cls-2, .cls-3 {
        stroke-width: 0px;
      }

      .cls-2 {
        fill: rgba(247, 185, 150, 0);
      }

      .cls-3 {
        fill: #fff;
      }
    </style>
  </defs>
  <rect class="cls-2" width="2000" height="2000"/>
  <path class="cls-1" d="M136.46,466.96c44.38-58.88,99.13-99.06,138.71-124.73,100.93-65.47,192.05-94.23,280.65-121.51,75-23.09,131.59-34.73,203.23-49.46,90.81-18.67,158.37-32.57,250.54-38.71,71.88-4.79,136.58-9.1,222.58,5.38,33.64,5.66,107.62,20.44,194.62,60.22,96.41,44.07,165.62,99.08,208.6,138.71,22.42,20.67,107.66,101.64,175.27,234.41,55.61,109.2,75.97,207.66,88.17,266.67,7.48,36.18,13.4,73.54,24.73,145.16,10.75,67.94,16.71,105.95,21.51,155.91,4.61,48.01,8.92,92.86,7.53,149.46-1.92,77.97-3.63,147.54-38.71,226.88-15.59,35.26-41.71,92.49-101.08,135.48-6.48,4.7-28.34,20.06-84.95,41.94-89.19,34.46-162.87,45.73-173.12,47.31-223.49,34.54-294.47,101.19-553.76,121.51-113.42,8.89-199.11,3.91-262.37,0-120.36-7.44-217.57-14.22-334.41-59.14-45.4-17.45-100.23-39.04-160.22-87.1-78.11-62.58-117.43-131.96-130.11-155.91-38.76-73.23-47.41-135.43-56.99-204.3-13.19-94.8-8.44-169.57-2.15-268.82,7.32-115.34,17.32-126.48,15.05-209.68-3.87-141.82-4.3-150.54-4.3-150.54-1.64-32.82-3.6-62.54,3.23-103.23,6.42-38.25,17.2-65.9,21.51-76.34,4.93-11.97,18.36-42.58,46.24-79.57h0Z"/>
  <g>
    <path class="cls-3" d="M661.57,1274.05c-21.26,79.88-78.37,141.92-157.31,167.75-54.09,18.65-101.66,13.02-96.16-37.58.61-8.32,2.59-17.08,6.42-24.73,5.49-11.35,15.25-20.32,26.35-26.51,6.93-3.95,14.6-7.22,22.37-10.55,79.07-28.46,92.42-93.11,103.64-173.99,3.41-22.05,5.9-44.67,8.84-66.6,4.1-33.93,8.27-77.21,50.18-80.51,16.16-1.48,33.96,2.73,46.69,12.93,26.37,21.58,12.63,63.14,8.92,92.59-8.32,48.78-7.25,98.97-19.89,147.01l-.05.2h0Z"/>
    <path class="cls-3" d="M907.24,1467.25c-287.82-34.8-274.42-446.82,22.28-464.04,317.99,17.24,303.81,481-22.28,464.04ZM867.14,1128.61c-127.38,69.29-33.15,281.56,105.04,225.34,157-50.13,65.03-308.88-105.04-225.34Z"/>
    <path class="cls-3" d="M1563.82,1444.98c-7.19,1.69-15.11,2.09-22.61,2.44-78.46,2.27-155.74,12.12-234.99,14.87-22.63,1.28-46.99,5.75-69.3,2.82-43.89-5.69-33.37-46.12-37.19-78.97-9.05-101.46-7.49-203.33-19.82-304.4-1.5-15.09-.09-33.62,7.72-45.39,10.17-17.1,32.56-14.79,49.78-14.8,47.89-3.42,103.22-7.73,153.85-10.04,32.78-2.19,65.8-2.45,98.39-6.44,7.26-1,15.38-2.27,23.36-2.57,21.03-1.44,43.24,7.46,52.04,26.54,11.91,22.8,8.39,59.8-9.96,75.11-8.87,7.18-22.34,7.76-33.82,8.57-26.25,1.73-52.22,2.48-78.42,3.38-27.21,1.79-54.38,4.43-81.64,6.32-15.19.41-32.73-1.56-46.88,5.4-25.09,12.4-24.1,44.67,3.67,52.49,9.56,2.91,20.18,2.51,30.11,1.62,20.06-1.95,40.06-2.67,60.14-3.97,20.42-1.59,39.11-.81,60.57-2.45,17.34-1.24,35.76-3.49,52.89-.8,20.61,3.01,30.98,14.76,32.92,35.78,1.71,26.23,6.26,57.14-20.66,65.29-10.73,3.87-23.25,4.97-34.71,5.95-21.67,1.8-43.38,3.45-65.12,4.7-22.15,1.23-44.28,2.67-66.48,3.69-11.42.48-23.66.76-34.37,4.27-23.08,6.32-36.38,36.8-13.64,51.15,19.77,12.16,50.77,4.94,73.18,3.51,20.26-2.83,40.28-3.01,60.57-3.69,54.08-3.32,136.99-27.11,138.34,37.4,1.79,23.88,1.21,56.39-27.73,62.16l-.19.04v.02Z"/>
  </g>
  <g>
    <path class="cls-3" d="M455.03,970.72c-234.26-26.67-223.15-366.25,18.18-378.59,258.7,12.9,247.83,393.18-18.18,378.59ZM422.31,694.43c-103.92,56.53-27.05,229.71,85.7,183.84,128.09-40.9,53.05-252-85.7-183.84h0Z"/>
    <path class="cls-3" d="M718.59,917.31c-118.01-136.76,64.74-322.14,207-203.66,138.92,141.72-64.84,350.12-207,203.66h0ZM843.76,744.78c-87.88-22.19-134.61,115.25-47.31,148.03,93.36,43.55,160.84-114.28,47.31-148.03Z"/>
    <path class="cls-3" d="M1178.27,677.23c174.24,27.98,115.91,253.65-49.69,227.48-10.02-1.02-19.68-2.2-28.65-1.78-5.98.26-12.42,1.25-17.85,3.3-35.96,14.26,8.22,59.52-55.01,58.48-35.38-1.44-33.14-25.89-32.94-53.57.17-10.09.54-20.05.07-30.12-1.31-31.99,2.63-67.87.37-100.82-1.34-14.32-.48-28.59-.21-43.01.12-11.09-1.37-23.48-.63-33.44,1.24-18.11,12.32-25.84,29.74-27,45.37-1.68,89.33-.8,135.24-.81,6.49.08,12.6.36,19.32,1.25l.23.03h.01ZM1194.89,823.73c23.85-15.21,24.11-47.51,4.55-66.32-16.65-15.64-41.35-11.96-62.29-11.71-13.71.69-28.56-2.03-42.39-.51-37.54,2.86-41.66,62.27-21.13,81.84,2.92,2.79,6.37,4.55,10.27,5.46,10.47,2.11,21.3.42,32.18,1.25,26.28,1.14,55.91,5.52,78.65-9.9l.16-.11h0Z"/>
    <path class="cls-3" d="M1567.63,865.39c-6.34,73.91-172.34,127.05-220.67,45.57-6.28-20.22,43.51-53.5,65-24.68,50.54,18.34,158.06-58.72,46.71-44.67-30.62,6.55-65.44,14.05-96.88,9.19-50.24-11.77-71.69-74.61-44.86-114.86,36.14-54.24,163.48-96.42,211.74-18.2,1.86,19.67-34.76,45.35-52.76,29.56-16.48-17-116.25-7.07-104.3,39.26-1.56,10.82,93.2-13.39,114.83-10.56,47.22-8.41,95.21,39.56,81.2,89.39h0Z"/>
    <path class="cls-3" d="M1678.72,912.78c-2.02,52.58-95.78,53.91-87.16-6.47,1.78-62.68,94.05-64.3,87.16,6.47ZM1617.39,779.13c10.36-53.9,13.14-107.09,20.2-163.41,3.44-39.24,82.87-27.65,76.44,8.05-1.07,14.72-.39,25.56-4.38,39.5-13.91,54.36-18,99.25-29.92,158.28-10.92,46.93-85.06,29.96-62.34-42.43h0Z"/>
  </g>
</svg>